<svg width="837" height="1022" viewBox="0 0 837 1022" fill="none" xmlns="http://www.w3.org/2000/svg">
<path fill-rule="evenodd" clip-rule="evenodd" d="M80 83.4592C80 82.3999 80.1176 81.477 80.2911 80.7051H172.031V941.295H80.2911C80.1176 940.523 80 939.6 80 938.541V83.4592ZM74.4062 0.705078H212.031H762.531C811.3 0.705078 836.938 46.3056 836.938 83.4592V938.541C836.938 975.694 811.3 1021.3 762.531 1021.3H212.031H74.4062C25.6377 1021.3 0 975.694 0 938.541V83.4592C0 46.3056 25.6377 0.705078 74.4062 0.705078ZM252.031 941.295V80.7051H756.646C756.82 81.477 756.938 82.3999 756.938 83.4592V938.541C756.938 939.6 756.82 940.523 756.646 941.295H252.031ZM319 325C319 302.909 336.909 285 359 285H634.25C656.341 285 674.25 302.909 674.25 325C674.25 347.091 656.341 365 634.25 365H359C336.909 365 319 347.091 319 325ZM319 510.508C319 488.417 336.909 470.508 359 470.508H634.25C656.341 470.508 674.25 488.417 674.25 510.508C674.25 532.6 656.341 550.508 634.25 550.508H359C336.909 550.508 319 532.6 319 510.508ZM361.344 656.508C339.252 656.508 321.344 674.417 321.344 696.508C321.344 718.6 339.252 736.508 361.344 736.508H636.594C658.685 736.508 676.594 718.6 676.594 696.508C676.594 674.417 658.685 656.508 636.594 656.508H361.344Z" fill="#83C5BE" fill-opacity="0.25"/>
</svg>
